<svg id="Layer_1" data-name="Layer 1" xmlns="http://www.w3.org/2000/svg" viewBox="0 0 477.91 366.91"><defs><style>.cls-1,.cls-2,.cls-3,.cls-4{fill:#010101;}.cls-1,.cls-3{stroke:#f79420;}.cls-1,.cls-2,.cls-3{stroke-miterlimit:10;}.cls-1{stroke-width:7px;}.cls-2{stroke:#f15a26;stroke-width:5px;}.cls-3{stroke-width:4px;}.cls-5{fill:none;}.cls-6{fill:#f15a26;}.cls-7{fill:#f79420;}.cls-8{fill:#fff;}</style></defs><polygon class="cls-1" points="238.96 360.5 122.71 182 6.46 3.5 238.96 3.5 471.46 3.5 355.21 182 238.96 360.5"/><polygon class="cls-2" points="238.96 324.5 146.71 177.25 54.46 30 238.96 30 423.46 30 331.21 177.25 238.96 324.5"/><rect class="cls-3" x="45.96" y="75" width="377" height="168"/><polygon class="cls-4" points="238.96 231.4 164.21 148.95 89.46 66.5 238.96 66.5 388.46 66.5 313.71 148.95 238.96 231.4"/><polygon class="cls-4" points="237.96 334.5 203.22 287.5 168.47 240.5 237.96 240.5 307.46 240.5 272.71 287.5 237.96 334.5"/><polygon class="cls-2" points="238.46 334 212.46 292 186.46 250 238.46 250 290.46 250 264.46 292 238.46 334"/><polygon class="cls-4" points="174.58 231.4 305.69 231.4 313.48 231.4 297.15 254.44 179.44 255.34 168.47 231.4 174.58 231.4"/><path class="cls-5" d="M81.44,196.91c1.76,2.16,4.51,3.24,8.22,3.24a12.13,12.13,0,0,0,8.88-3.24c2.18-2.15,3.5-5.64,3.94-10.43l.85-9.23q-12.21,3-23.44,6.18l-.33,3C79.05,191.27,79.67,194.76,81.44,196.91Z"/><path class="cls-5" d="M181.84,128.34c1.8-1.5,2.76-4,2.9-7.62l.48-12.23c.14-3.49-.62-6-2.26-7.41s-4.15-2.16-7.55-2.16H165.6l-1.69,31.67h10C177.41,130.59,180.05,129.84,181.84,128.34Z"/><polygon class="cls-5" points="312.9 102.09 312.52 102.09 308.37 133.6 305.69 154 325.08 154 320.19 133.15 312.9 102.09"/><path class="cls-6" d="M102.48,186.48c-.44,4.79-1.76,8.28-3.94,10.43a12.13,12.13,0,0,1-8.88,3.24c-3.71,0-6.46-1.08-8.22-3.24s-2.39-5.64-1.88-10.43l.33-3q-12.14,3.4-23,6.84c-.28,8.79,1.68,15.82,5.93,21q7.68,9.41,24.43,9.42c11.16,0,20-3.15,26.31-9.42s9.91-15,10.79-26.4l1-12.73q-11.31,2.44-22,5.09Z"/><path class="cls-7" d="M132,85.66H111.74l-7.45,81.08-1,10.51q10.62-2.62,22-5.09l.67-8.66Z"/><path class="cls-7" d="M81.27,170.56l9.07-84.9h-21l-10.85,89.1-1.23,10.13c-.23,1.86-.36,3.65-.41,5.38q10.91-3.42,23-6.84Z"/><path class="cls-6" d="M138.61,191H160.7l1.38-25.87q-11.25,1.88-22,4Z"/><path class="cls-7" d="M173.24,145.81q14.25,0,22.31-5.37c.64-.43,1.27-.89,1.85-1.37,5.42-4.45,8.23-10.93,8.43-19.39l.26-10.16c.2-8.24-2.22-14.43-7.24-18.63s-12.57-6.24-22.78-6.24H145.82l-4.13,60.95-1.6,23.49q10.74-2.11,22-4l1-19.28ZM165.6,98.92h9.81c3.4,0,5.91.72,7.55,2.16s2.4,3.92,2.26,7.41l-.48,12.23c-.14,3.57-1.1,6.12-2.9,7.62s-4.43,2.25-7.9,2.25h-10Z"/><path class="cls-6" d="M216.12,191h58.44l-.36-16.15h-36l0-18.44q-10.95.66-21.62,1.65Z"/><path class="cls-7" d="M238.45,84.65H217.9l-.9,54.1L216.67,158q10.67-1,21.62-1.65l0-19.11Z"/><path class="cls-6" d="M280.17,191h20.49l3.1-22h24.73v-.32L333.79,191h22.09l-8.95-32.49c-20.58-2.13-40.78-3.19-60.48-3.37Z"/><path class="cls-7" d="M326.6,84.65H298.77l-8.7,49.73-3.62,20.72c19.7.18,39.9,1.24,60.48,3.37l-7.15-26ZM305.69,154l2.68-20.4,4.15-31.51h.38l7.29,31.06L325.08,154Z"/><path class="cls-6" d="M371.78,161.55l5,57.08h23l-5.46-53.39Q383,163.17,371.78,161.55Z"/><path class="cls-7" d="M393.66,159.09l3.81-15.63,14.1-57.8H391.13l-9.93,46.08h-.39L362.09,85.66H339.74l25.32,58.43,6.5,15,.22,2.46q11.19,1.62,22.51,3.69Z"/><path class="cls-4" d="M166.55,255.34c-6.4,0-10.51-2-12.16-5.85-1.54-3.55-.77-8.17,2.09-13.55l12.43-23.41a21.13,21.13,0,0,1,8.37-8.62,24.2,24.2,0,0,1,12.13-3c4.49,0,7.7,1,9.57,3s2.28,4.89,1.14,8.61l-2.44,7.93H182.25l-1.76,4.27h15.87l-3.45,11.21a27.39,27.39,0,0,1-26.36,19.4Z"/><path class="cls-8" d="M160.42,245.72c-1.15-2.41-.66-5.71,1.37-9.78l11.67-23.41a15,15,0,0,1,5.92-6.46,17,17,0,0,1,8.74-2.15c3.38,0,5.68.71,6.95,2.15s1.47,3.61.5,6.46l-1.39,4.06h-7.3l1.74-4.43c.88-2.26.09-3.37-2.34-3.37a5.23,5.23,0,0,0-5.15,3.37l-10.84,24.36c-1.41,3.19-.63,4.82,2.38,4.82s5.17-1.63,6.42-4.82l2.92-7.47h7.93l-2.34,6.89a20.08,20.08,0,0,1-6.84,9.78A18.84,18.84,0,0,1,169,249.47C164.47,249.47,161.6,248.21,160.42,245.72Z"/><polygon class="cls-4" points="225.58 254.44 230.73 201.32 257.93 201.32 259.24 212.78 246.25 212.78 246.31 215.6 256.84 215.6 258.2 229.9 246.62 229.9 246.75 235.6 261.85 235.6 264.01 254.44 225.58 254.44"/><path class="cls-8" d="M234.71,204.4H254l.4,4.9H241.73l-.11,10.11h10.81l.39,6.12H241.56l-.17,15H257l.66,8.06H231.86Z"/><polygon class="cls-4" points="302.11 254.44 284.89 201.32 300.16 201.32 315.34 235.6 329.73 235.6 339.74 254.44 302.11 254.44"/><path class="cls-8" d="M290.17,204.4h7.07l14.84,36.17h14.83l4,8.06H306Z"/></svg>